<svg xmlns="http://www.w3.org/2000/svg" data-name="Layer 1" viewBox="0 0 1940 1100">
  <path fill="#021845" d="M0 0h1940v1100H0z"/>
  <path d="M737.93 393.91c-18.49-1.52-62.2-5-64-5.11-2.27-.15-6.93-1.12-8.7 4.64L641.71 470c-3.93-4.15-11.09-6.73-19.15-6.35-11.95.58-21.32 7.41-20.93 15.31s10.38 13.83 22.29 13.24c11.1-.54 20-6.47 20.88-13.64l17.81-57.93c1-3.19 2.16-7.32 11-6.54 4 .36 59.34 4.74 59.34 4.74l-16.45 53.59c-3.92-4.23-11.14-6.87-19.29-6.47-12 .57-21.32 7.41-20.93 15.3s10.38 13.83 22.29 13.25c11-.53 19.78-6.37 20.86-13.44h.12l22.65-73.72c2.81-9.15 9.34-7.39 9.34-7.39l1.55-5-15.16-1z" fill="#d64145"/>
  <circle cx="1766.5" cy="943.5" r="101.5" fill="#d64145"/>
  <circle cx="1766" cy="944" r="29" fill="#021845"/>
  <path fill="#021845" d="M1872.855 882.596l6.685 15.769-90.16 38.22-6.685-15.77zm-125.103 51.893l6.656 15.795-90.31 38.055-6.655-15.795z"/>
  <path d="M1736.44 243.11l-15.1 66.67a22.48 22.48 0 0021.76-7.33 4.44 4.44 0 002.17 1.21l.92.21a4.81 4.81 0 004.17-1.11 6.69 6.69 0 002.13-3.6l1.21-5.36 1.82-8 11.38-50.22-2.47-.56a2.47 2.47 0 01-1.85-3c.07-.26.13-.54.19-.8a70.89 70.89 0 10-138.27-31.33l-.18.8a2.46 2.46 0 01-3 1.9l-2.47-.56-14.41 63.61a6.55 6.55 0 00.37 4.16 4.79 4.79 0 003.28 2.8l.92.21a4.57 4.57 0 002.3-.08 22.51 22.51 0 0016.46 15.87l15.11-66.67a22.49 22.49 0 00-18 3.86l4.3-18.95a4.77 4.77 0 004.66-3.32l.1-.21.16-.73a60.865 60.865 0 11118.72 26.9l-.11.5a4.79 4.79 0 002.73 5.44l-4.35 19.18a22.46 22.46 0 00-14.65-11.49z" fill="#6e44ff"/>
  <path d="M1764.43 235l2.47.56 2.2.5a2.47 2.47 0 003-1.82l.21-.87A80.648 80.648 0 101615 197.73c-.07.29-.13.58-.19.88a2.47 2.47 0 001.88 2.91l2.2.5 2.47.56a2.46 2.46 0 003-1.9l.18-.8a70.89 70.89 0 11138.27 31.33c-.06.26-.12.54-.19.8a2.47 2.47 0 001.81 2.99zm-165.98 16.27a8.21 8.21 0 006.11 9.81l5.52-24.36a8.22 8.22 0 00-9.75 6.22zM1754.4 295a8.22 8.22 0 009.75-6.22l1.88-8.32a8.22 8.22 0 00-6.11-9.82zm-110.05-72.77l-15.16 66.9 8.08 1.83a2.34 2.34 0 002.81-1.77l14.12-62.32a2.33 2.33 0 00-1.77-2.8zm79.65 20.45L1709.88 305a2.34 2.34 0 001.76 2.8l8.09 1.83 15.16-66.89-8.09-1.83a2.33 2.33 0 00-2.8 1.77z" fill="#6e44ff"/>
  <circle cx="1197" cy="675" r="51" fill="#6e44ff"/>
  <circle cx="213" cy="434" r="88" fill="#009ddc"/>
  <path d="M1005.37 70.39c-14.28 11.85-48 39.93-49.31 41.08-1.73 1.47-5.74 4-3 9.4l36.73 71.23c-5.72-.22-12.64 2.94-18.14 8.85-8.14 8.76-10.06 20.2-4.26 25.58s17.09 2.62 25.19-6.12c7.56-8.15 9.77-18.6 5.4-24.35l-27.77-53.87c-1.53-3-3.58-6.75 3.29-12.37 3.15-2.58 45.74-38.1 45.74-38.1l25.68 49.79c-5.76-.28-12.76 2.88-18.32 8.86-8.14 8.76-10.06 20.2-4.26 25.58s17.09 2.62 25.19-6.12c7.51-8.08 9.7-18.39 5.53-24.19l.11-.06L1017.84 77c-4.38-8.5 1.51-11.81 1.51-11.81l-2.42-4.68-11.56 9.85z" fill="#6e44ff"/>
  <circle cx="1650.42" cy="555.7" r="101.5" fill="#009ddc"/>
  <circle cx="1649.72" cy="555.6" r="29" fill="#021845"/>
  <path fill="#021845" d="M1759.05 602.314l-8.735 14.747-84.318-49.945 8.736-14.747zm-112.486-66.99l-8.735 14.747-84.318-49.945 8.735-14.747z"/>
  <path d="M1492.65 810.54l30.56 61.15a22.51 22.51 0 0012.19-19.46 4.54 4.54 0 002.45-.43l.84-.43a4.76 4.76 0 002.52-3.49 6.68 6.68 0 00-.63-4.14l-2.46-4.92-3.68-7.37-23-46.05-2.27 1.13a2.47 2.47 0 01-3.32-1.14c-.11-.24-.24-.5-.36-.74A70.89 70.89 0 101378.65 848c.12.25.25.5.38.74a2.47 2.47 0 01-1.09 3.34l-2.26 1.13 29.15 58.34a6.61 6.61 0 002.92 3 4.79 4.79 0 004.31.09l.85-.43a4.5 4.5 0 001.73-1.52 22.51 22.51 0 0022.79 1.85l-30.55-61.15a22.5 22.5 0 00-11.48 14.38l-8.68-17.38a4.78 4.78 0 001.51-5.52l-.06-.23-.34-.67a60.87 60.87 0 01108.9-54.41l.23.46a4.78 4.78 0 005.56 2.48l8.79 17.59a22.49 22.49 0 00-18.66.45z" fill="#d64145"/>
  <path d="M1509.16 786.53l2.27-1.13 2-1a2.46 2.46 0 001.13-3.28l-.39-.81A80.62 80.62 0 001370 852.37c.13.27.27.53.41.8a2.46 2.46 0 003.29 1.07l2-1 2.26-1.13a2.47 2.47 0 001.09-3.34c-.13-.24-.26-.49-.38-.74a70.89 70.89 0 11126.83-63.37c.12.24.25.5.36.74a2.47 2.47 0 003.3 1.13zm-118.1 117.76A8.22 8.22 0 001402 908l-11.16-22.35a8.22 8.22 0 00-3.6 11zm148.38-64.95a8.23 8.23 0 003.6-11l-3.81-7.64a8.23 8.23 0 00-11-3.72zm-131.27 13.4l30.66 61.36 7.41-3.71a2.34 2.34 0 001.06-3.14l-28.57-57.17a2.34 2.34 0 00-3.14-1zm74.58-34.64l28.56 57.16a2.35 2.35 0 003.15 1l7.41-3.71-30.65-61.35-7.42 3.8a2.33 2.33 0 00-1.05 3.1zM517.11 662c-18.5-1.52-62.21-5-64-5.11-2.27-.15-6.93-1.13-8.7 4.64l-23.54 76.6c-3.94-4.15-11.09-6.73-19.16-6.35-12 .57-21.32 7.41-20.93 15.3s10.38 13.83 22.29 13.25c11.1-.55 20-6.48 20.89-13.64l17.8-57.93c1-3.19 2.17-7.33 11-6.54 4 .36 59.34 4.74 59.34 4.74l-16.46 53.55c-3.91-4.23-11.13-6.87-19.29-6.47-11.95.57-21.32 7.4-20.93 15.3s10.38 13.83 22.29 13.24c11-.52 19.79-6.36 20.87-13.43h.11l22.66-73.72c2.81-9.14 9.33-7.39 9.33-7.39l1.55-5-15.15-1z" fill="#d64145"/>
  <circle cx="1361.5" cy="236.5" r="101.5" fill="#d64145"/>
  <path d="M563.62 165.23l-15.11 66.67a22.53 22.53 0 0021.76-7.33 4.6 4.6 0 002.17 1.21l.93.21a4.8 4.8 0 004.16-1.11 6.66 6.66 0 002.13-3.6l1.22-5.36 1.82-8 11.38-50.22-2.48-.56a2.46 2.46 0 01-1.84-3c.06-.26.13-.54.19-.81A70.892 70.892 0 00451.67 122l-.18.81a2.46 2.46 0 01-2.95 1.9l-2.46-.56-14.42 63.6a6.57 6.57 0 00.37 4.17 4.79 4.79 0 003.28 2.8l.93.21a4.52 4.52 0 002.29-.09A22.52 22.52 0 00455 210.71L470.1 144a22.49 22.49 0 00-18 3.86l4.3-19a4.78 4.78 0 004.67-3.31l.09-.21.16-.74a60.87 60.87 0 01118.73 26.91l-.12.5a4.79 4.79 0 002.73 5.44l-4.34 19.18a22.48 22.48 0 00-14.7-11.4z" fill="#6e44ff"/>
  <path d="M591.6 157.11l2.48.56 2.19.5a2.48 2.48 0 003-1.82c.07-.29.13-.58.2-.88a80.62 80.62 0 00-157.25-35.63l-.18.89a2.46 2.46 0 001.87 2.91l2.21.5 2.46.56a2.46 2.46 0 002.95-1.9l.18-.81A70.897 70.897 0 01590 153.32c-.06.27-.13.55-.19.81a2.46 2.46 0 001.79 2.98zm-165.98 16.27a8.22 8.22 0 006.11 9.82l5.52-24.37a8.22 8.22 0 00-9.74 6.23zm155.96 43.77a8.22 8.22 0 009.74-6.22l1.89-8.32a8.23 8.23 0 00-6.11-9.82zm-110.06-72.8l-15.15 66.9 8.08 1.83a2.34 2.34 0 002.8-1.77L481.38 149a2.36 2.36 0 00-1.78-2.81zm79.65 20.45l-14.12 62.32a2.35 2.35 0 001.77 2.81l8.08 1.83 15.16-66.89L554 163a2.35 2.35 0 00-2.83 1.8z" fill="#6e44ff"/>
  <circle cx="613" cy="930" r="51" fill="#6e44ff"/>
  <circle cx="1170" cy="477" r="88" fill="#009ddc"/>
  <path d="M194.55 779.51c-14.29 11.84-48 39.92-49.32 41.07-1.72 1.48-5.74 4-3 9.41L179 901.21c-5.72-.21-12.63 2.95-18.13 8.86-8.14 8.76-10.07 20.2-4.27 25.57s17.09 2.63 25.2-6.12c7.55-8.14 9.76-18.59 5.39-24.35l-27.79-53.86c-1.53-3-3.57-6.75 3.3-12.37 3.15-2.58 45.74-38.1 45.74-38.1l25.67 49.79c-5.75-.29-12.76 2.87-18.31 8.86-8.14 8.76-10.07 20.2-4.27 25.57s17.09 2.63 25.2-6.12c7.5-8.07 9.69-18.38 5.52-24.19h.11L207 786.15c-4.38-8.5 1.51-11.81 1.51-11.81l-2.41-4.68-11.56 9.85z" fill="#6e44ff"/>
  <circle cx="898.59" cy="720.82" r="101.5" fill="#009ddc"/>
  <circle cx="897.9" cy="720.72" r="29" fill="#021845"/>
  <path fill="#021845" d="M1007.178 767.408l-8.735 14.747-84.318-49.945 8.735-14.747zm-112.487-66.991l-8.735 14.747-84.318-49.944 8.735-14.747z"/>
  <path d="M210.83 162.66l30.55 61.15a22.51 22.51 0 0012.19-19.46 4.53 4.53 0 002.45-.44l.85-.42a4.81 4.81 0 002.52-3.5 6.67 6.67 0 00-.64-4.13l-2.46-4.92-3.68-7.37-23-46-2.27 1.13a2.47 2.47 0 01-3.32-1.14c-.11-.25-.24-.5-.36-.74a70.89 70.89 0 10-126.84 63.32c.13.24.25.5.38.74a2.47 2.47 0 01-1.09 3.34l-2.26 1.12L123 263.68a6.6 6.6 0 002.93 3 4.82 4.82 0 004.31.08l.85-.42a4.63 4.63 0 001.72-1.52 22.51 22.51 0 0022.79 1.85l-30.55-61.15a22.44 22.44 0 00-11.47 14.38l-8.69-17.39a4.77 4.77 0 001.52-5.51l-.06-.23-.35-.67a60.87 60.87 0 01108.9-54.41l.23.46a4.8 4.8 0 005.56 2.48l8.79 17.59a22.43 22.43 0 00-18.65.44z" fill="#d64145"/>
  <path d="M227.33 138.65l2.27-1.13 2-1a2.48 2.48 0 001.13-3.28l-.4-.81a80.62 80.62 0 00-144.21 72.06c.13.27.27.53.41.8a2.48 2.48 0 003.3 1.07l2-1 2.26-1.12a2.47 2.47 0 001.09-3.34c-.13-.24-.25-.5-.38-.74a70.89 70.89 0 11126.83-63.37c.12.24.25.49.36.74a2.47 2.47 0 003.34 1.12zm-118.1 117.76a8.23 8.23 0 0011 3.72L109 237.78a8.23 8.23 0 00-3.6 11zm148.39-64.96a8.22 8.22 0 003.59-11l-3.81-7.63a8.23 8.23 0 00-11-3.73zm-131.27 13.41L157 266.22l7.41-3.71a2.34 2.34 0 001.05-3.14l-28.55-57.17a2.34 2.34 0 00-3.15-1zm74.57-34.65l28.57 57.17a2.34 2.34 0 003.14 1.05l7.42-3.71-30.66-61.35-7.42 3.7a2.35 2.35 0 00-1.05 3.14z" fill="#d64145"/>
</svg>
